<svg xmlns="http://www.w3.org/2000/svg" viewBox="0 0 320 320" role="img" aria-label="Smash collage tee">
  <defs>
    <linearGradient id="teeGradient" x1="0" y1="0" x2="1" y2="1">
      <stop offset="0" stop-color="#ffcf4d"/>
      <stop offset="1" stop-color="#e60012"/>
    </linearGradient>
    <pattern id="dotPattern" width="24" height="24" patternUnits="userSpaceOnUse">
      <circle cx="6" cy="6" r="3" fill="rgba(255,255,255,0.2)"/>
    </pattern>
  </defs>
  <rect width="320" height="320" rx="24" fill="#15151f"/>
  <path d="M85 70l26-28h98l26 28 40-10 20 38-34 18 8 144a18 18 0 0 1-18 19H80a18 18 0 0 1-18-19l8-144-34-18 20-38 40 10z" fill="url(#teeGradient)"/>
  <path d="M98 110h124v132H98z" fill="url(#dotPattern)" opacity="0.7"/>
  <circle cx="115" cy="130" r="22" fill="rgba(0,0,0,0.2)"/>
  <circle cx="210" cy="150" r="26" fill="rgba(0,0,0,0.25)"/>
  <circle cx="150" cy="190" r="30" fill="rgba(0,0,0,0.22)"/>
  <text x="160" y="215" text-anchor="middle" font-size="24" font-family="Arial, sans-serif" fill="#fff" letter-spacing="4">SMASH</text>
</svg>
